<svg xmlns="http://www.w3.org/2000/svg" viewBox="-0.01 72.53 399.62 254.93"><path fill="#d8dcd8" fill-rule="evenodd" d="M3.437 73.772c-1.332.58-2.65 1.649-2.929 2.377-1.665 4.337-1.155 5.245 36.54 65.062L74.096 200l-37.048 58.789C-1.33 319.69-1.489 319.976.765 324.188c1.563 2.921 4.632 3.156 41.174 3.156 28.451 0 35.952-.214 37.969-1.081 2.146-.922 8.074-9.917 40.548-61.531 38.779-61.634 40.087-63.846 39.274-66.407-1.535-4.837-77.078-123.034-79.444-124.3-3.412-1.827-72.71-2.055-76.849-.253m120.301.005c-3.848 1.675-4.739 5.324-2.39 9.796 1.021 1.945 17.878 28.936 37.461 59.98l35.604 56.443-36.673 58.19c-20.171 32.005-36.965 58.988-37.321 59.963-1.138 3.119.433 6.83 3.421 8.078 3.875 1.619 72.621 1.652 76.38.036 2.147-.922 8.074-9.917 40.548-61.531 38.779-61.634 40.087-63.846 39.274-66.407-1.535-4.837-77.078-123.034-79.444-124.3-3.419-1.831-72.71-2.054-76.86-.248m120.012-.11c-2.816 1.425-4.348 4.977-3.32 7.7.449 1.189 17.2 28.16 37.224 59.937 20.025 31.777 36.409 58.19 36.409 58.696s-16.329 26.832-36.287 58.502c-41.962 66.59-40.007 62.889-35.425 67.037 1.879 1.701 71.807 2.661 77.29 1.061 4.317-1.26 79.968-121.025 79.968-126.6 0-5.007-75.414-125.092-79.44-126.495-3.71-1.294-73.835-1.145-76.419.162"/></svg>