<svg xmlns="http://www.w3.org/2000/svg" width="400" height="117"><path d="M52.75.273C26.102 3.301 5.691 22.063 1.02 47.832c-7.528 41.531 30.125 76.988 71.132 66.984 25.672-6.261 43.325-28.46 44.29-55.691l.113-3.125H88.629c-25.313 0-27.938-.023-28.027-.266-.055-.144-.102-12.742-.102-28V0l-2.875.023c-1.582.012-3.773.125-4.875.25M74.5 21v21l20.957-.04 20.961-.042.047-2.293.043-2.293H103.43c-7.192 0-13.114-.059-13.16-.133-.043-.074.68-.422 1.617-.77.933-.35 2.035-.769 2.445-.925.414-.16 1.8-.688 3.086-1.164 1.281-.48 3.008-1.137 3.832-1.457 1.297-.504 4.195-1.61 6.082-2.313 4.996-1.87 6.582-2.535 6.555-2.75-.047-.414-1.434-3.898-1.59-4.004-.082-.054-1.402.383-2.93.973-1.531.59-2.972 1.129-3.199 1.203-.23.074-2.219.824-4.418 1.664-2.2.844-5.687 2.172-7.75 2.957a772 772 0 0 0-5.465 2.094c-.945.367-1.765.617-1.824.559-.063-.059 4.234-4.461 9.547-9.778 5.312-5.316 9.691-9.707 9.734-9.75.102-.113-3.027-3.238-3.242-3.238-.098 0-4.371 4.203-9.5 9.344s-9.348 9.277-9.375 9.199c-.027-.082.184-.703.469-1.387l2.09-5.074A973 973 0 0 1 88.746 17c.406-.965 1.219-2.91 1.809-4.332.586-1.422 1.578-3.809 2.199-5.305.656-1.582 1.066-2.777.976-2.863-.207-.207-3.66-1.668-3.94-1.668-.145 0-.786 1.336-1.7 3.543-.813 1.95-1.863 4.48-2.34 5.625s-1.375 3.32-1.996 4.832c-1.035 2.52-2.453 5.945-3.805 9.195-.293.7-.59 1.239-.656 1.196-.07-.04-.125-6.184-.125-13.649V0H74.5zm-18.54-9.352c.052 7.704.192 7.102-1.687 7.235-13.77.972-27.207 10.996-32.664 24.367-9.382 22.984 4.493 48.93 28.778 53.813 23.02 4.632 44.91-11.618 47.238-35.063l.125-1.25 6.582-.082c8.29-.105 7.39-.3 7.258 1.562-2.16 29.59-28.29 51.883-57.84 49.356-20.242-1.738-38.48-15.32-45.344-33.781-9.328-25.075-.164-51.809 22.457-65.512C37.984 7.98 48.391 4.793 55 4.903l.918.015zm207.102 5.602c-13.067 2.309-18.684 17.633-10.137 27.645 8.515 9.984 26.36 6.753 29.246-5.293.55-2.293.77-2.102-2.383-2.102h-2.71l-.208.875c-1.023 4.355-5.098 6.957-10.902 6.957-9.84.004-15.192-10.734-9.219-18.5 5.227-6.793 17.64-5.371 19.965 2.285l.367 1.211 2.711.004c3.144.004 2.93.184 2.367-2.02-1.93-7.558-10.578-12.57-19.098-11.062m-123.785.527c-.058.063-.109 7.38-.109 16.266v16.156l6.125-.078c6.867-.086 7.668-.195 10.195-1.402 6.164-2.95 6.57-12.653.637-15.305-1.34-.598-1.324-.527-.29-1.3 1.864-1.391 2.563-2.981 2.571-5.864.02-5.074-2.48-7.652-8.074-8.34-1.969-.238-10.84-.348-11.055-.133m24.836-.004c-.062.063-.113 7.38-.113 16.254v16.141h5.336l-.043-16.211-.043-16.207-2.512-.047c-1.379-.023-2.558.008-2.625.07m10.094.032c-.164.105-.2 3.457-.168 16.207l.043 16.07 6-.004c6.824-.004 7.688-.121 10.352-1.41 6.039-2.922 6.507-12.36.754-15.18-1.004-.492-1.528-.988-1.04-.988.723 0 2.559-2.41 2.95-3.871 1.277-4.8-1.086-9.106-5.68-10.344-2.008-.543-12.512-.922-13.211-.48m24.742-.032c-.062.063-.117 7.38-.117 16.254v16.141h8.066c7.5 0 8.075-.023 8.176-.29.121-.316.094-4.331-.035-4.671-.059-.16-1.289-.207-5.39-.207-4.95 0-5.317-.02-5.32-.293l-.044-13.625-.035-13.332-2.594-.047c-1.426-.023-2.644.008-2.707.07m18.961.102c-.043.113-.058 7.406-.035 16.207l.043 16 8.875.043 8.875.047V45h-12.336v-9h11.344l-.094-4.75-5.629-.043-5.625-.047.043-4.12.047-4.122 6.129-.047 6.129-.043-.094-5.078-8.797-.043c-6.945-.035-8.812 0-8.875.168m68.367-.098c-.058.063-.109 7.375-.109 16.25v16.141h17.84l-.043-2.543-.047-2.543-12.336-.164-.086-8.914 11.422-.086V31.25l-5.668-.082-5.668-.086-.043-4.039c-.023-2.223-.023-4.059 0-4.078.024-.024 2.82-.078 6.211-.125l6.168-.09.047-2.402c.031-1.813-.008-2.438-.168-2.54-.254-.163-17.36-.19-17.52-.03m21.5 0c-.058.062-.109 7.374-.109 16.25v16.14h5.5V39c0-6.14.055-11.164.125-11.16.066.004 1.117 1.746 2.336 3.875 1.215 2.129 2.648 4.617 3.18 5.535 1.535 2.637 4.82 8.336 5.914 10.25.547.96 1.14 1.957 1.316 2.207l.316.461h5.313V17.656l-2.711.047-2.707.047-.082 11.168-.086 11.164-.539-.875c-.3-.484-.543-.902-.543-.937 0-.032-.387-.723-.855-1.54-.473-.812-1.043-1.82-1.274-2.23a15 15 0 0 0-.539-.918c-.066-.09-.855-1.441-1.75-3-.894-1.559-2.172-3.77-2.832-4.914-.66-1.148-1.937-3.36-2.832-4.918s-1.711-2.887-1.813-2.957c-.234-.152-5.175-.168-5.328-.016m26.758 2.43.047 2.543 3.5.082 3.5.086.086 27.25h5.328l.086-27.25 3.5-.086 3.5-.082v-5l-9.797-.043-9.793-.043zm22.578-2.43c-.062.063-.113 7.375-.113 16.25v16.145l8.875-.047 8.875-.043.047-2.164c.027-1.191.008-2.336-.043-2.54l-.094-.374-12.242-.086v-8.836l5.574-.043c6.102-.047 5.797.016 5.746-1.168a99 99 0 0 1-.054-2.242l-.016-1.457-5.625-.043-5.625-.047v-8.164l6.164-.086 6.168-.082v-5l-8.762-.043c-4.82-.023-8.812.008-8.875.07m21.465.098c-.047.113-.062 7.445-.039 16.293l.043 16.082 2.332.05c3.445.071 3.07.544 3.125-3.929l.043-3.789 2.75-.098c3.285-.113 2.719-.566 4.75 3.766.902 1.926 1.715 3.594 1.8 3.707.118.156 1.005.211 3.407.211 2.578 0 3.219-.043 3.086-.211-.254-.312-5.207-9.246-5.207-9.387 0-.066.457-.535 1.016-1.039 6.851-6.203 4.609-18.144-3.938-20.945-2.574-.844-12.906-1.402-13.168-.711m-227.93 4.898c1.825.59 2.707 1.926 2.707 4.106 0 3.058-1.644 4.144-6.328 4.183l-2.609.02-.047-4.289-.043-4.293h2.734c2.086 0 2.934.066 3.586.273m35.102.075c3.227 1.207 3.52 6.09.453 7.574-1.418.687-6.398 1.062-6.851.515-.204-.242-.262-8.136-.067-8.335.297-.297 5.55-.098 6.465.246m203.8.547c3.126 1.015 4.79 3.37 4.782 6.765-.008 4.645-3.105 7.172-8.789 7.172H384V22.957l2.375.09c1.465.055 2.684.187 3.176.348M55.965 30.168c.055 7.95.187 7.207-1.336 7.45C38.555 40.175 31.723 60.311 42.82 72.41c11.563 12.606 32.735 6.645 35.953-10.117.293-1.54.332-1.625.727-1.625l6.75-.008c3.484-.004 6.426-.004 6.543 0 .43.016-.012 3.38-.871 6.625-5.633 21.219-29.711 32.074-49.254 22.2-24.3-12.282-25.973-45.926-3.02-60.731 4.446-2.867 11.75-5.328 15.434-5.2l.836.028zm95.46 5.719c2.684.87 3.962 3.289 3.173 6.008-.72 2.476-2.594 3.261-7.805 3.27l-2.461.003v-9.7l3.125.071c2.281.055 3.356.148 3.969.348m34.289-.125c2.941.761 3.86 1.87 3.863 4.656.008 3.555-1.469 4.547-7.012 4.703-3.148.09-3.183.086-3.277-.266-.137-.53-.156-9.097-.02-9.238.247-.242 5.395-.129 6.446.145M56 51.418l.082 9.164 9.066.04c4.985.019 9.098.07 9.141.112.691.688-2.25 6.645-4.352 8.813-6.277 6.476-17.609 6.566-23.277.18-7.219-8.137-5.972-19.317 2.817-25.172 1.554-1.04 5.332-2.461 6.191-2.336.215.031.258 1.222.332 9.199m326.805 13.074c-4.676.856-7.668 3.973-7.922 8.258-.29 4.82 2.472 7.828 9.25 10.07 4.836 1.602 6.168 2.852 6 5.64-.387 6.446-10.035 6.255-11.344-.226l-.234-1.152h-5.137l.031 1.203c.211 7.707 9.293 12.27 17.004 8.54 3.371-1.63 5.215-4.66 5.215-8.575 0-5.36-2.242-7.582-10.5-10.418-3.883-1.332-5.188-2.637-4.95-4.941.52-5.043 8.177-4.637 8.91.476l.126.883 2.379.14c3.219.188 3.14.262 2.601-2.355-1.082-5.25-6.046-8.527-11.43-7.543m-211.12.266c-10.883 2.36-16.532 14.262-11.508 24.262 6.406 12.753 25.539 11.894 30.656-1.38 4.89-12.68-6.027-25.73-19.148-22.882m-32.407.351c-.058.063-.109 7.375-.109 16.25V97.5h5.5V83.672l5.207-.043 5.207-.047.094-4.742-5.211-.047-5.215-.043v-8.5l5.707-.043 5.711-.047V65h-8.39c-4.614 0-8.438.05-8.5.11m56.472.081c-.047.125-.066 7.461-.043 16.309l.043 16.082 5.242.094.047-3.797.043-3.797 2.098-.102c1.152-.054 2.449-.152 2.879-.218l.785-.117 1.586 3.3c.87 1.82 1.71 3.567 1.867 3.887.156.32.297.606.305.633.035.09 6.257.062 6.347-.028.051-.05-1.078-2.19-2.512-4.753-2.882-5.16-2.761-4.875-2.199-5.246 3.266-2.137 5.137-7.29 4.418-12.157-.781-5.285-4.172-8.73-9.738-9.883-1.836-.382-11.035-.55-11.168-.207m35.531-.086c-.062.067-.113 7.38-.113 16.254v16.133l7.957.047c4.379.023 8.05.02 8.168-.016.344-.097.293-4.957-.059-5.09-.144-.054-2.582-.101-5.414-.101h-5.152l-.086-27.25-2.594-.043c-1.425-.027-2.644.004-2.707.066m19.164.004c-.226.227-.129 32.391.098 32.399 1.305.055 17.383-.047 17.484-.11.246-.152.168-4.668-.082-4.875-.152-.125-2.132-.199-6.21-.23l-5.985-.043v-8.832l5.625-.047 5.625-.043v-4.824l-11.25-.086-.047-4.043c-.023-2.223-.023-4.059 0-4.078.027-.02 2.82-.078 6.215-.125l6.164-.09.05-2.164c.024-1.191.005-2.336-.046-2.543l-.094-.375h-8.719c-4.793 0-8.765.05-8.828.11m31.297.015c-.097.07-.422.762-.719 1.543-.3.777-.648 1.68-.773 2-.129.32-.504 1.293-.84 2.16-.332.867-1.273 3.305-2.086 5.418-.812 2.11-1.863 4.813-2.332 6.004a127 127 0 0 0-.992 2.582c-.078.23-1.195 3.145-2.484 6.48-1.29 3.336-2.313 6.11-2.278 6.168.035.055 1.317.067 2.852.02l2.789-.082.84-2.297.836-2.293 7.847.043 7.848.047.84 2.25.836 2.25 2.637.082c1.453.047 2.707.04 2.789-.012.082-.05-1.586-4.703-3.707-10.332a2446 2446 0 0 1-4.317-11.496 98 98 0 0 0-.879-2.332c-.36-.914-1.238-3.25-2.445-6.496-.152-.41-.387-.973-.52-1.25l-.238-.5-2.664-.039c-1.465-.023-2.742.016-2.84.082m20.09.023v32.184c.004.34 8.715.207 10.703-.156 8.293-1.524 13.05-7.375 13.024-16.008-.028-8.445-4.395-13.871-12.641-15.707-1.79-.395-11.082-.66-11.086-.313m27.438.114c-.176.453-.118 32.043.054 32.148.113.07 13.238.14 17.473.094.164-.004.2-.574.168-2.547l-.047-2.539-6.125-.047-6.125-.043v-8.996H346V78.5h-11.34l.043-4.125.047-4.125 12.258-.086-.043-2.543-.047-2.539-8.773-.043c-7.895-.039-8.786-.016-8.875.223m21.562 16.058v16.356l5.25-.094.047-3.766.043-3.765 2.375-.102c1.3-.058 2.598-.152 2.879-.207l.508-.105 1.89 3.925 1.895 3.922 2.347.047c1.293.031 2.747.016 3.227-.031l.875-.082-1.266-2.25c-.695-1.238-1.609-2.89-2.03-3.668a124 124 0 0 0-1.388-2.484l-.617-1.067 1.445-1.433c5.266-5.207 4.739-14.746-1.046-18.957-2.63-1.914-4.86-2.407-11.391-2.512l-5.043-.082zM178.824 70.434c12.278 4.09 9.293 22.16-3.656 22.148-6.758-.008-11.27-4.559-11.238-11.332.035-8.02 7.351-13.328 14.894-10.816m28.035.386c3.067.97 4.532 3.09 4.547 6.598.028 4.812-2.527 7.102-7.972 7.144l-2.352.02-.043-6.914c-.023-3.805-.004-7.023.047-7.148.14-.375 4.34-.157 5.773.3m154.938-.078c3.469 1.074 5.3 4.192 4.707 8.02-.617 3.988-3.629 6.023-8.672 5.87l-1.582-.05-.043-6.914c-.023-3.805-.004-7.023.047-7.148.121-.325 4.316-.157 5.543.222m-49.215.172c4.906 1.356 7.45 4.844 7.473 10.254.027 6.602-3.7 10.441-10.586 10.918-2.61.18-2.301 1.621-2.301-10.867V70.457l2.207.09c1.246.055 2.645.215 3.207.367m-26.512 4.961a2484 2484 0 0 0 4.356 12c.101.273-.246.293-5.906.293-5.008 0-6.02-.04-6.02-.23 0-.13.273-.973.605-1.876a2233.532 2233.532 0 0 1 4.848-13.105c.238-.617.485-1.125.543-1.125.063 0 .77 1.82 1.574 4.043" style="stroke:none;fill-rule:evenodd;fill:#d8dcd8;fill-opacity:1"/></svg>