<svg xmlns="http://www.w3.org/2000/svg" version="1.1" xmlns:xlink="http://www.w3.org/1999/xlink" xmlns:svgjs="http://svgjs.dev/svgjs" width="100" height="100"><svg xmlns="http://www.w3.org/2000/svg" width="100" height="100"><path d="M47.164.137C22.102 1.8 2.25 21.074.242 45.684c-.047.57-.101 1.265-.125 1.546-.055.672-.05 4.844.004 5.606.668 9.219 3.152 16.937 7.742 24.062 17.524 27.188 55.352 31.075 77.918 8.012 9.11-9.308 13.926-20.988 14.196-34.41l.046-2.457H52.04V.074l-2.258.02C48.54.105 47.36.12 47.164.137m16.824 17.93V36.05H100v-3.996l-11.488-.02-11.492-.02 2.039-.773 8.71-3.308c3.672-1.391 7.446-2.825 8.383-3.184.942-.355 1.711-.684 1.711-.73-.004-.207-1.351-3.633-1.433-3.633-.047-.004-2.278.828-4.953 1.84-6.13 2.324-12.52 4.75-15.059 5.714-1.078.41-2.031.77-2.117.801-.09.031 3.66-3.77 8.332-8.449l8.496-8.504-1.422-1.418-1.418-1.418-8.23 8.23c-4.528 4.528-8.239 8.22-8.254 8.208-.024-.028.363-.97 3.691-9.004 4.688-11.309 5.168-12.485 5.14-12.516-.062-.062-3.523-1.473-3.616-1.473-.055 0-.207.278-.344.618-.137.343-.477 1.18-.762 1.859l-3.496 8.434-1.668 4.039c-.668 1.601-1.543 3.722-1.95 4.707l-.734 1.785-.02-11.88L68.024.079h-4.035zm-15.965-7.933c.016 4.715 0 5.945-.082 5.969-.054.015-.586.066-1.18.117-14.609 1.199-27.124 12.472-30.05 27.066C12 66.785 32.348 87.633 55.957 83.488c14.984-2.625 26.559-15.218 27.902-30.351l.098-1.098h11.965v.184c0 .101-.035.668-.082 1.257-2.024 26.368-25.817 45.622-51.996 42.079C18.543 92.14.852 68.594 4.566 43.285 7.25 25.008 21.023 9.84 38.93 5.445c3.035-.746 6.699-1.289 8.472-1.258l.598.008zm0 15.988.02 5.934-.18.074c-.101.039-.558.133-1.02.207-8.417 1.363-14.792 8.988-14.788 17.687.008 13.274 13.77 21.93 25.777 16.211 5.281-2.515 9.43-8.195 10.004-13.707l.05-.488h12.048l-.036.34c-.246 2.281-.418 3.332-.8 4.863-5.625 22.453-33.594 30.367-50.032 14.156-15.191-14.98-10.43-40.457 9.145-48.898 2.863-1.238 7.68-2.414 9.512-2.328l.277.012zM48 44.145v7.894h15.863l-.043.258c-1.758 10.258-13.644 15.133-22.015 9.027-8.508-6.207-7.344-19.273 2.12-23.844 1.321-.636 3.458-1.308 3.958-1.242.105.012.117.953.117 7.907" style="stroke:none;fill-rule:evenodd;fill:#2cb48d;fill-opacity:1"></path></svg><style>@media (prefers-color-scheme: light) { :root { filter: none; } }
@media (prefers-color-scheme: dark) { :root { filter: none; } }
</style></svg>