<svg xmlns="http://www.w3.org/2000/svg" viewBox="0.8 1.6 208.4 47.2"><path d="M100.2 20.3a13.49 13.49 0 0 1-.7 4.4c-.5 1.5-1.2 2.8-2.1 4a11.84 11.84 0 0 1-3.3 3c-1.3.8-2.8 1.1-4.4 1.1H63.4c-1.6-.1-3-.5-4.2-1.3s-2.3-1.8-3.1-3-1.5-2.5-2-4a13.33 13.33 0 0 1-.7-4.3 13.49 13.49 0 0 1 .7-4.4c.5-1.5 1.2-2.8 2.1-4a11.84 11.84 0 0 1 3.3-3c1.3-.8 2.8-1.1 4.4-1.1h26.2c1.6.1 3 .5 4.2 1.3s2.3 1.8 3.1 3 1.5 2.5 2 4c.6 1.5.8 2.9.8 4.3m-11.8 7c1.3 0 2.4-.2 3.2-.7s1.5-1.1 2-1.8.8-1.5 1-2.3.3-1.6.3-2.3-.1-1.5-.3-2.3-.5-1.6-1-2.3-1.1-1.3-2-1.8c-.8-.5-1.9-.7-3.2-.7H65.2c-1.3 0-2.4.2-3.2.7s-1.5 1.1-2 1.8-.8 1.4-1 2.3c-.2.8-.3 1.6-.3 2.3s.1 1.4.3 2.3c.2.8.5 1.6 1 2.3s1.1 1.3 2 1.8 1.9.7 3.2.7h23.2zm-72.4-7c0-.8.3-1.4.8-1.9s1.2-.8 2-.8h22c1 0 1.9.2 2.7.6s1.6.9 2.2 1.5 1.1 1.4 1.5 2.2c.3.9.5 1.8.5 2.7v1.3c0 1-.2 1.9-.5 2.7-.3.9-.8 1.6-1.5 2.2-.6.6-1.4 1.1-2.2 1.5s-1.7.5-2.7.5h-30c-1.6 0-3-.4-4.2-1.1-1.2-.8-2.3-1.8-3.1-3-.9-1.2-1.5-2.6-2-4s-.7-3-.7-4.4a13.49 13.49 0 0 1 .7-4.4c.5-1.5 1.2-2.8 2.1-4a11.84 11.84 0 0 1 3.3-3c1.3-.8 2.8-1.1 4.4-1.1h33.5c.8 0 1.4.3 2 .8.5.5.8 1.2.8 1.9 0 .8-.3 1.4-.8 1.9s-1.2.8-2 .8H12.7c-1.3 0-2.4.2-3.2.7S8 15 7.5 15.7s-.8 1.4-1 2.3c-.2.8-.3 1.6-.3 2.3s.1 1.5.3 2.3.5 1.6 1 2.3 1.1 1.3 2 1.8c.8.5 1.9.7 3.2.7h27.9c.5 0 .9-.2 1.2-.6.4-.4.5-.9.5-1.5s-.2-1.1-.5-1.5-.8-.6-1.3-.6H18.8c-.8 0-1.4-.3-2-.8-.5-.7-.8-1.3-.8-2.1zm181.6-9.9c0-.8.3-1.4.8-1.9s1.2-.8 1.9-.8c.8 0 1.4.3 1.9.8s.8 1.2.8 1.9v16.7c0 1.6-.5 2.9-1.6 4a5.28 5.28 0 0 1-3.9 1.6c-.5 0-1.1-.1-1.6-.2s-1-.4-1.4-.6l-26.3-16.1-1.8-1c-.5-.2-.9-.4-1.2-.4-.6 0-.9.4-1.1 1.1s-.2 1.8-.2 3.2V30c0 .8-.3 1.4-.8 2-.5.5-1.2.8-1.9.8-.8 0-1.4-.3-1.9-.8s-.8-1.2-.8-2V13.3c0-1.6.5-2.9 1.6-4a5.28 5.28 0 0 1 3.9-1.6c.5 0 1.1.1 1.6.2s1 .4 1.4.6l26.3 16.1 1.8 1c.5.2.9.4 1.2.4.6 0 .9-.4 1.1-1.1s.2-1.8.2-3.2V10.4h0zm-44.9 9.8a13.49 13.49 0 0 1-.7 4.4c-.5 1.5-1.2 2.8-2.1 4a11.84 11.84 0 0 1-3.3 3c-1.3.8-2.8 1.1-4.4 1.1H116c-1.6-.1-3-.5-4.2-1.3s-2.3-1.8-3.1-3c-.9-1.2-1.5-2.5-2-4a13.33 13.33 0 0 1-.7-4.3 13.49 13.49 0 0 1 .7-4.4c.5-1.5 1.2-2.8 2.1-4a11.84 11.84 0 0 1 3.3-3c1.3-.8 2.8-1.1 4.4-1.1h26.2c1.6.1 3 .5 4.2 1.3s2.3 1.8 3.1 3 1.5 2.5 2 4a13.33 13.33 0 0 1 .7 4.3zm-11.8 7c1.3 0 2.4-.2 3.2-.7s1.5-1.1 2-1.8.8-1.5 1-2.3.3-1.6.3-2.3-.1-1.5-.3-2.3-.5-1.6-1-2.3-1.1-1.3-2-1.8c-.8-.5-1.9-.7-3.2-.7h-23.2c-1.3 0-2.4.2-3.2.7s-1.5 1.1-1.9 1.8c-.5.7-.8 1.4-1 2.3-.2.8-.3 1.6-.3 2.3s.1 1.4.3 2.3c.2.8.5 1.6 1 2.3s1.1 1.3 1.9 1.8 1.9.7 3.2.7h23.2zm59.4 21.4v-2.4l-1.5-4.9h1.2l.9 3.3h0l.9-3.3h1.1l-1.5 4.9v2.4h-1.1zm-9.1-3v-1h1.6v2.3c0 .6-.1 1-.4 1.4-.3.3-.7.5-1.3.5s-1-.2-1.3-.5-.4-.8-.4-1.4V43c0-.6.1-1 .4-1.4.3-.3.7-.5 1.3-.5s1 .2 1.3.5.4.8.4 1.4v.7h-1.1v-.8c0-.5-.2-.7-.6-.7s-.6.2-.6.7v4c0 .5.2.7.6.7s.6-.2.6-.7v-1.3h-.5 0zm-11.9 1.2V43c0-.6.1-1 .5-1.4.3-.3.7-.5 1.3-.5s1 .2 1.3.5.4.8.4 1.4v3.8c0 .6-.1 1-.4 1.4s-.7.5-1.3.5-1-.2-1.3-.5-.5-.8-.5-1.4zm1.2-3.9v4c0 .5.2.7.6.7s.6-.2.6-.7v-4c0-.5-.2-.7-.6-.7s-.6.3-.6.7zM170 48.6v-7.3h1.1v6.3h1.9v1h-3zm-10.1-1.8V43c0-.6.1-1 .4-1.4.3-.3.7-.5 1.3-.5s1 .2 1.3.5.4.8.4 1.4v3.8c0 .6-.1 1-.4 1.4s-.7.5-1.3.5-1-.2-1.3-.5c-.2-.3-.4-.8-.4-1.4zm1.2-3.9v4c0 .5.2.7.6.7s.6-.2.6-.7v-4c0-.5-.2-.7-.6-.7s-.6.3-.6.7zm-8.9 5.7l-1.4-5.3h0v5.3h-1v-7.3h1.4l1.2 4.4h0v-4.4h1v7.3h-1.2zm-11.6-3.1v3.2h-1.1v-7.3h1.1v3.2h1.3v-3.2h1.2v7.3h-1.2v-3.2h-1.3zm-8.8.4h1.1v1c0 .6-.1 1-.4 1.4-.3.3-.7.5-1.3.5s-1-.2-1.3-.5-.4-.8-.4-1.4V43c0-.6.1-1 .4-1.4.3-.3.7-.5 1.3-.5s1 .2 1.3.5.4.8.4 1.4v.7h-1.1v-.8c0-.5-.2-.7-.6-.7s-.6.2-.6.7v4c0 .5.2.7.6.7s.6-.2.6-.7v-1zM121 42.3v2h1.6v1H121v2.2h2v1h-3.2v-7.3h3.2v1h-2zm-11.1 0v-1h3.6v1h-1.2v6.3h-1.2v-6.3h-1.2zm-18.4 0h-.7v5.2h.7c.2 0 .3 0 .4-.2.1-.1.2-.3.2-.5V43c0-.2-.1-.4-.2-.5 0-.1-.2-.2-.4-.2zm-1.8 6.3v-7.3h1.8c.6 0 1 .2 1.3.5s.4.8.4 1.3v3.7c0 .6-.2 1-.4 1.3-.3.3-.7.5-1.3.5h-1.8zm-7.8 0l-1.4-5.3h0v5.3h-1v-7.3h1.4l1.2 4.4h0v-4.4h1v7.3h-1.2zm-11-6l-.5 3.7h1.1l-.6-3.7h0zm.9-1.4l1.2 7.3h-1.2l-.2-1.3h-1.4l-.2 1.4h-1l1.2-7.3h1.6zM51 48.6l-1.4-5.3h0v5.3h-1v-7.3H50l1.2 4.4h0v-4.4h1v7.3H51zm-10.7-3v-1H42v2.3c0 .6-.2 1-.4 1.4-.3.3-.7.5-1.3.5s-1-.2-1.3-.5-.4-.8-.4-1.4V43c0-.6.2-1 .4-1.4.3-.3.7-.5 1.3-.5s1 .2 1.3.5c.2.4.4.8.4 1.4v.7h-1.1v-.8c0-.5-.2-.7-.6-.7s-.6.2-.6.7v4c0 .5.2.7.6.7s.6-.2.6-.7v-1.3h-.6 0zm-9.5 3v-7.3h1.1v7.3h-1.1zM20.9 43c0-.6.1-1 .4-1.4.3-.3.7-.5 1.3-.5s1 .2 1.3.5.4.8.4 1.4v.2h-1.1v-.3c0-.5-.2-.7-.6-.7-.2 0-.3.1-.4.2s-.1.3-.1.5c0 .3.1.5.2.8s.4.5.8.8c.5.4.8.8 1 1.2.2.3.3.7.3 1.2 0 .6-.1 1-.4 1.4-.3.3-.7.5-1.3.5s-1-.2-1.3-.5-.4-.8-.4-1.4v-.5h1.1v.5c0 .5.2.7.6.7s.6-.2.6-.7c0-.3-.1-.5-.2-.8-.1-.2-.4-.5-.8-.8-.5-.4-.8-.8-1-1.2-.3-.3-.4-.7-.4-1.1zm-8.4-.7v2h1.6v1h-1.6v2.2h2v1h-3.2v-7.3h3.1v1h-1.9zm-9.5 0h-.6v5.2H3c.2 0 .3 0 .4-.2.1-.1.2-.3.2-.5V43c0-.2 0-.4-.2-.5 0-.1-.2-.2-.4-.2zm-1.8 6.3v-7.3H3c.6 0 1 .2 1.3.5s.4.8.4 1.3v3.7c0 .6-.2 1-.4 1.3-.3.4-.7.5-1.3.5H1.2zm208-44c0 1.7-1.3 3-3 3s-3.1-1.3-3.1-3c0-1.6 1.4-3 3.1-3a3.01 3.01 0 0 1 3 3zm-5.3 0c0 1.3 1 2.4 2.3 2.4s2.3-1 2.3-2.4c0-1.3-1-2.4-2.3-2.4s-2.3 1.1-2.3 2.4zm1.8 1.6h-.7v-3c.3-.1.7-.1 1.1-.1.6 0 .8.1 1 .2s.3.4.3.7-.3.6-.6.7h0c.3.1.5.3.5.7.1.5.1.6.2.7h-.7c-.1-.1-.1-.4-.2-.7s-.2-.5-.6-.5h-.3v1.3zm0-1.7h.3c.4 0 .7-.1.7-.4s-.2-.5-.6-.5h-.4v.9z" fill="#ffffff"/></svg>